HIERARCHY
ROOT Hips
{
	OFFSET 0.00000 0.00000 0.00000
	CHANNELS 6 Xposition Yposition Zposition Zrotation Yrotation Xrotation 
	JOINT LHipJoint
	{
		OFFSET 0 0 0
		CHANNELS 3 Zrotation Yrotation Xrotation
		JOINT LeftHip
		{
			OFFSET 1.17584 -1.63585 1.00361
			CHANNELS 3 Zrotation Yrotation Xrotation
			JOINT LeftKnee
			{
				OFFSET 2.23889 -6.15131 0.00000
				CHANNELS 3 Zrotation Yrotation Xrotation
				JOINT LeftAnkle
				{
					OFFSET 2.65161 -7.28525 0.00000
					CHANNELS 3 Zrotation Yrotation Xrotation
					JOINT LeftToe
					{
						OFFSET 0.24898 -0.68407 1.57235
						CHANNELS 3 Zrotation Yrotation Xrotation
						End Site
						{
							OFFSET 0.00000 -0.00000 0.85838
						}
					}
				}
			}
		}
	}
	JOINT RHipJoint
	{
		OFFSET 0 0 0
		CHANNELS 3 Zrotation Yrotation Xrotation
		JOINT RightHip
		{
			OFFSET -1.15592 -1.63585 1.00361
			CHANNELS 3 Zrotation Yrotation Xrotation
			JOINT RightKnee
			{
				OFFSET -2.34071 -6.43104 0.00000
				CHANNELS 3 Zrotation Yrotation Xrotation
				JOINT RightAnkle
				{
					OFFSET -2.59113 -7.11908 0.00000
					CHANNELS 3 Zrotation Yrotation Xrotation
					JOINT RightToe
					{
						OFFSET -0.17867 -0.49089 1.70981
						CHANNELS 3 Zrotation Yrotation Xrotation
						End Site
						{
							OFFSET -0.00000 -0.00000 0.89861
						}
					}
				}
			}
		}
	}
	JOINT lowerback
	{
		OFFSET 0 0 0
		CHANNELS 3 Zrotation Yrotation Xrotation
		JOINT Chest
		{
			OFFSET -0.02255 1.90764 -0.16605
			CHANNELS 3 Zrotation Yrotation Xrotation
			JOINT Chest2
			{
				OFFSET -0.00365 1.92150 -0.04898
				CHANNELS 3 Zrotation Yrotation Xrotation
				JOINT lowerneck
				{
					OFFSET 0 0 0
					CHANNELS 3 Zrotation Yrotation Xrotation
					JOINT Neck
					{
						OFFSET 0.00372 1.59170 0.08694
						CHANNELS 3 Zrotation Yrotation Xrotation
						JOINT Head
						{
							OFFSET 0.12558 1.58643 -0.08078
							CHANNELS 3 Zrotation Yrotation Xrotation
							End Site
							{
								OFFSET 0.04211 1.60835 -0.03803
							}
						}
					}
				}
				JOINT LeftCollar
				{
					OFFSET 0 0 0
					CHANNELS 3 Zrotation Yrotation Xrotation
					JOINT LeftShoulder
					{
						OFFSET 3.69324 0.96316 0.19077
CHANNELS 3 Zrotation Xrotation Yrotation
						JOINT LeftElbow
						{
OFFSET 0 -4.877960 -0.000000
CHANNELS 3 Zrotation Xrotation Yrotation
							JOINT LeftWrist
							{
OFFSET 0 -3.231690 0.000000
CHANNELS 3 Zrotation Xrotation Yrotation
								JOINT lhand
								{
									OFFSET 0 0 0
CHANNELS 3 Zrotation Xrotation Yrotation
									JOINT LFingers
									{
OFFSET 0 -0.731320 0.000000
CHANNELS 3 Zrotation Xrotation Yrotation
										End Site
										{
OFFSET 0 -0.589610 0.000000
										}
									}
								}
								JOINT LThumb
								{
OFFSET 0 0.000000 0.000000
CHANNELS 3 Zrotation Xrotation Yrotation
									End Site
									{
OFFSET 0 -0.598610 0.598610
									}
								}
							}
						}
					}
				}
				JOINT RightCollar
				{
					OFFSET 0 0 0
					CHANNELS 3 Zrotation Yrotation Xrotation
					JOINT RightShoulder
					{
						OFFSET -3.66103 0.75145 0.08281
CHANNELS 3 Zrotation Xrotation Yrotation
						JOINT RightElbow
						{
OFFSET 0 -4.914300 0.000000
CHANNELS 3 Zrotation Xrotation Yrotation
							JOINT RightWrist
							{
OFFSET 0 -3.290930 0.000000
CHANNELS 3 Zrotation Xrotation Yrotation
								JOINT rhand
								{
									OFFSET 0 0 0
CHANNELS 3 Zrotation Xrotation Yrotation
									JOINT RFingers
									{
OFFSET 0 -0.545120 0.000000
CHANNELS 3 Zrotation Xrotation Yrotation
										End Site
										{
OFFSET 0 -0.439490 0.000000
										}
									}
								}
								JOINT RThumb
								{
OFFSET 0 0.000000 0.000000
CHANNELS 3 Zrotation Xrotation Yrotation
									End Site
									{
OFFSET 0 -0.446200 0.446200
									}
								}
							}
						}
					}
				}
			}
		}
	}
}
MOTION
Frames: 6
Frame Time: 0.008333333333333333
1.507900 14.288700 -1.242300 22.334500 -88.979900 -24.250500 0.000000 0.000000 0.000000 -3.186400 7.922600 -43.649800 13.596400 18.987000 70.968100 2.333900 -13.540200 -27.701200 0.810600 -5.745700 -16.048300 0.000000 0.000000 0.000000 0.104300 -8.727900 -41.537000 -12.891400 -18.742600 68.787800 -1.920700 10.769200 -24.928900 -0.805500 5.728000 -15.997100 -3.203300 0.691900 9.067500 -0.696100 0.518600 3.491700 1.029700 0.196100 -1.485800 -2.711600 -2.335800 -7.997200 10.753500 -3.658700 4.467200 3.517500 -1.509800 2.894600 0.000000 -0.000000 0.000000 10.769100 -55.287600 -32.582600 78.982000 -59.536300 50.473000 -14.478600 32.061500 14.663400 0.000000 0.000000 0.000000 -7.125000 0.000000 0.000000 -27.466300 15.661100 -21.725800 0.000000 -0.000000 0.000000 -14.329700 -47.925500 26.325500 -92.570500 -59.975000 -62.225900 -3.147600 10.103900 53.701600 0.000000 0.000000 0.000000 7.125000 0.000000 -0.000000 73.170100 72.651800 -55.091300
1.507858 14.286176 -1.242468 21.312449 -88.983813 -23.226555 0.000000 0.000000 0.000000 -3.158928 7.929205 -43.670162 13.604099 18.989524 70.991743 2.332554 -13.540789 -27.693417 0.812283 -5.751422 -16.064876 0.000000 0.000000 0.000000 0.118099 -8.721295 -41.529512 -12.897963 -18.744998 68.808246 -1.921205 10.806474 -24.934748 -0.797044 5.698425 -15.911824 -3.169434 0.690680 9.068888 -0.700559 0.519820 3.489975 1.006015 0.196983 -1.488156 -2.669151 -2.330036 -8.054163 10.739659 -3.660761 4.531399 3.505636 -1.507065 2.922324 0.000000 0.000000 0.000000 10.808604 -55.269005 -32.563753 79.029792 -59.540339 50.514187 -14.673132 32.184429 14.627262 0.000000 0.000000 0.000000 -7.125000 0.000000 0.000000 -27.584938 15.684112 -21.832658 0.000000 0.000000 0.000000 -14.307866 -47.902740 26.325921 -92.495321 -59.976430 -62.160818 -3.034389 10.031624 53.670636 0.000000 0.000000 0.000000 7.125000 0.000000 0.000000 73.127273 72.603125 -54.993866
1.507816 14.283652 -1.242637 20.290397 -88.987725 -22.202611 0.000000 0.000000 0.000000 -3.131456 7.935810 -43.690524 13.611798 18.992048 71.015387 2.331208 -13.541378 -27.685634 0.813966 -5.757143 -16.081451 0.000000 0.000000 0.000000 0.131898 -8.714690 -41.522023 -12.904526 -18.747396 68.828692 -1.921710 10.843748 -24.940595 -0.788588 5.668849 -15.826548 -3.135567 0.689460 9.070277 -0.705019 0.521040 3.488250 0.982329 0.197867 -1.490512 -2.626703 -2.324273 -8.111126 10.725818 -3.662823 4.595598 3.493772 -1.504331 2.950048 0.000000 0.000000 0.000000 10.848108 -55.250410 -32.544905 79.077583 -59.544377 50.555373 -14.867664 32.307358 14.591124 0.000000 0.000000 0.000000 -7.125000 0.000000 0.000000 -27.703575 15.707125 -21.939516 0.000000 0.000000 0.000000 -14.286031 -47.879980 26.326341 -92.420141 -59.977861 -62.095735 -2.921179 9.959347 53.639673 0.000000 0.000000 0.000000 7.125000 0.000000 0.000000 73.084445 72.554450 -54.896431
1.507643 14.283224 -1.242831 19.771401 -88.985478 -21.683032 0.000000 0.000000 0.000000 -3.120628 7.937750 -43.695212 13.612708 18.992345 71.018193 2.328420 -13.555754 -27.671298 0.813342 -5.755002 -16.075250 0.000000 0.000000 0.000000 0.140009 -8.714113 -41.520773 -12.905742 -18.747854 68.832468 -1.922057 10.841314 -24.942800 -0.791271 5.678170 -15.853478 -3.119445 0.688790 9.075020 -0.706385 0.521343 3.485896 0.971801 0.198226 -1.495436 -2.615496 -2.315285 -8.133229 10.737532 -3.655763 4.623496 3.495695 -1.498870 2.961627 0.000000 0.000000 0.000000 10.864782 -55.220597 -32.536201 79.131849 -59.548940 50.602143 -15.004691 32.403080 14.548249 0.000000 0.000000 0.000000 -7.125000 0.000000 0.000000 -27.790132 15.739022 -22.006980 0.000000 0.000000 0.000000 -14.276909 -47.843696 26.325058 -92.374554 -59.978688 -62.056286 -2.812529 9.872340 53.642468 0.000000 0.000000 0.000000 7.125000 0.000000 0.000000 73.143733 72.516390 -54.907036
1.507390 14.284066 -1.243041 19.556801 -88.979504 -21.468643 0.000000 0.000000 0.000000 -3.119871 7.936866 -43.690416 13.609511 18.991293 71.008391 2.324760 -13.578471 -27.652998 0.811323 -5.748102 -16.055267 0.000000 0.000000 0.000000 0.144679 -8.717184 -41.523297 -12.903723 -18.747139 68.826158 -1.922310 10.814852 -24.942800 -0.800695 5.711027 -15.948304 -3.114060 0.688454 9.081793 -0.705881 0.521090 3.483162 0.969235 0.198268 -1.501915 -2.623195 -2.304347 -8.134239 10.764709 -3.643184 4.629428 3.505960 -1.491761 2.963436 0.000000 0.000000 0.000000 10.867643 -55.183996 -32.533635 79.190032 -59.553821 50.652290 -15.106922 32.482340 14.501299 0.000000 0.000000 0.000000 -7.125000 0.000000 0.000000 -27.857276 15.776296 -22.050607 0.000000 0.000000 0.000000 -14.275478 -47.799228 26.322745 -92.346871 -59.979151 -62.032348 -2.706638 9.776421 53.665691 0.000000 0.000000 0.000000 7.125000 0.000000 0.000000 73.264811 72.484753 -54.983015
1.507014 14.285000 -1.243293 19.368596 -88.974079 -21.282738 0.000000 0.000000 0.000000 -3.119279 7.937525 -43.682215 13.606375 18.990262 70.998754 2.321099 -13.607886 -27.635474 0.807678 -5.735499 -16.018847 0.000000 0.000000 0.000000 0.148562 -8.719293 -41.523378 -12.901393 -18.746300 68.818906 -1.922521 10.791081 -24.942676 -0.809001 5.739951 -16.031796 -3.108261 0.690487 9.083867 -0.704848 0.524191 3.485509 0.966710 0.199770 -1.500693 -2.638512 -2.298512 -8.134803 10.797331 -3.636174 4.625661 3.518855 -1.487663 2.962916 0.000000 0.000000 0.000000 10.862710 -55.155448 -32.541140 79.221283 -59.556444 50.679222 -15.169250 32.548248 14.478911 0.000000 0.000000 0.000000 -7.125000 0.000000 0.000000 -27.897125 15.793335 -22.080064 0.000000 0.000000 0.000000 -14.285185 -47.763495 26.309811 -92.319365 -59.979624 -62.008555 -2.645690 9.712153 53.702908 0.000000 0.000000 0.000000 7.125000 0.000000 0.000000 73.408081 72.472751 -55.103118
